<?xml version="1.0" encoding="utf-8"?>
<!-- Generator: Adobe Illustrator 28.0.0, SVG Export Plug-In . SVG Version: 6.00 Build 0)  -->
<svg version="1.1" id="图层_1" xmlns="http://www.w3.org/2000/svg" xmlns:xlink="http://www.w3.org/1999/xlink" x="0px" y="0px"
	 viewBox="0 0 528.3 531.3" style="enable-background:new 0 0 528.3 531.3;" xml:space="preserve">
<style type="text/css">
	.st0{display:none;}
	.st1{display:inline;fill:#61DAFB;}
	.st2{fill:#9DCEDB;}
	.st3{fill:#4DBECC;}
	.st4{fill:#F6BF20;}
</style>
<g class="st0">
	<path class="st1" d="M509.5,264.5c0-32.5-40.7-63.3-103.1-82.4c14.4-63.6,8-114.2-20.2-130.4c-6.5-3.8-14.1-5.6-22.4-5.6v22.3
		c4.6,0,8.3,0.9,11.4,2.6c13.6,7.8,19.5,37.5,14.9,75.7c-1.1,9.4-2.9,19.3-5.1,29.4c-19.6-4.8-41-8.5-63.5-10.9
		c-13.5-18.5-27.5-35.3-41.6-50c32.6-30.3,63.2-46.9,84-46.9V46c-27.5,0-63.5,19.6-99.9,53.6c-36.4-33.8-72.4-53.2-99.9-53.2v22.3
		c20.7,0,51.4,16.5,84,46.6c-14,14.7-28,31.4-41.3,49.9c-22.6,2.4-44,6.1-63.6,11c-2.3-10-4-19.7-5.2-29
		c-4.7-38.2,1.1-67.9,14.6-75.8c3-1.8,6.9-2.6,11.5-2.6V46.5c-8.4,0-16,1.8-22.6,5.6c-28.1,16.2-34.4,66.7-19.9,130.1
		c-62.2,19.2-102.7,49.9-102.7,82.3c0,32.5,40.7,63.3,103.1,82.4c-14.4,63.6-8,114.2,20.2,130.4c6.5,3.8,14.1,5.6,22.5,5.6
		c27.5,0,63.5-19.6,99.9-53.6c36.4,33.8,72.4,53.2,99.9,53.2c8.4,0,16-1.8,22.6-5.6c28.1-16.2,34.4-66.7,19.9-130.1
		C469,327.7,509.5,296.9,509.5,264.5L509.5,264.5z M379.3,197.8c-3.7,12.9-8.3,26.2-13.5,39.5c-4.1-8-8.4-16-13.1-24
		c-4.6-8-9.5-15.8-14.4-23.4C352.5,192,366.2,194.6,379.3,197.8L379.3,197.8z M333.5,304.3c-7.8,13.5-15.8,26.3-24.1,38.2
		c-14.9,1.3-30,2-45.2,2c-15.1,0-30.2-0.7-45-1.9c-8.3-11.9-16.4-24.6-24.2-38c-7.6-13.1-14.5-26.4-20.8-39.8
		c6.2-13.4,13.2-26.8,20.7-39.9c7.8-13.5,15.8-26.3,24.1-38.2c14.9-1.3,30-2,45.2-2c15.1,0,30.2,0.7,45,1.9
		c8.3,11.9,16.4,24.6,24.2,38c7.6,13.1,14.5,26.4,20.8,39.8C347.9,277.8,341,291.2,333.5,304.3L333.5,304.3z M365.8,291.3
		c5.4,13.4,10,26.8,13.8,39.8c-13.1,3.2-26.9,5.9-41.2,8c4.9-7.7,9.8-15.6,14.4-23.7C357.4,307.4,361.7,299.3,365.8,291.3
		L365.8,291.3z M264.4,398c-9.3-9.6-18.6-20.3-27.8-32c9,0.4,18.2,0.7,27.5,0.7c9.4,0,18.7-0.2,27.8-0.7
		C282.9,377.7,273.6,388.4,264.4,398z M190,339.1c-14.2-2.1-27.9-4.7-41-7.9c3.7-12.9,8.3-26.2,13.5-39.5c4.1,8,8.4,16,13.1,24
		S185.1,331.5,190,339.1z M263.9,131c9.3,9.6,18.6,20.3,27.8,32c-9-0.4-18.2-0.7-27.5-0.7c-9.4,0-18.7,0.2-27.8,0.7
		C245.4,151.3,254.7,140.6,263.9,131z M189.9,189.9c-4.9,7.7-9.8,15.6-14.4,23.7c-4.6,8-8.9,16-13,24c-5.4-13.4-10-26.8-13.8-39.8
		C161.8,194.7,175.6,192,189.9,189.9L189.9,189.9z M99.4,315.1C64,300,41.1,280.2,41.1,264.5s22.9-35.6,58.3-50.6
		c8.6-3.7,18-7,27.7-10.1c5.7,19.6,13.2,40,22.5,60.9c-9.2,20.8-16.6,41.1-22.2,60.6C117.5,322.2,108.1,318.8,99.4,315.1L99.4,315.1
		z M153.2,458c-13.6-7.8-19.5-37.5-14.9-75.7c1.1-9.4,2.9-19.3,5.1-29.4c19.6,4.8,41,8.5,63.5,10.9c13.5,18.5,27.5,35.3,41.6,50
		c-32.6,30.3-63.2,46.9-84,46.9C160,460.6,156.2,459.7,153.2,458L153.2,458z M390.4,381.8c4.7,38.2-1.1,67.9-14.6,75.8
		c-3,1.8-6.9,2.6-11.5,2.6c-20.7,0-51.4-16.5-84-46.6c14-14.7,28-31.4,41.3-49.9c22.6-2.4,44-6.1,63.6-11
		C387.5,362.8,389.3,372.5,390.4,381.8z M428.9,315.1c-8.6,3.7-18,7-27.7,10.1c-5.7-19.6-13.2-40-22.5-60.9
		c9.2-20.8,16.6-41.1,22.2-60.6c9.9,3.1,19.3,6.5,28.1,10.2c35.4,15.1,58.3,34.9,58.3,50.6C487.2,280.2,464.3,300.1,428.9,315.1
		L428.9,315.1z"/>
	<circle class="st1" cx="264.1" cy="264.5" r="45.7"/>
	<path class="st1" d="M363.7,46.1"/>
</g>
<path class="st2" d="M375.1,384.2H96.2v-108c111.4-33.6,206.5-54.8,278.9-17.2V384.2z"/>
<path class="st3" d="M473.7,412.1H21.5V246.5c164,4.8,203.5,53,452.2,64.9V412.1z"/>
<path class="st4" d="M511.6,412.1H21.5v-58.5C315.8,321.9,365,190.9,511.7,188.4L511.6,412.1L511.6,412.1z"/>
</svg>
